<svg width="76" height="75" viewBox="0 0 76 75" fill="none" xmlns="http://www.w3.org/2000/svg">
<path d="M51.397 7.04036C53.6633 8.07304 54.6594 10.7367 53.6268 13.0031L51.7603 17.0993L43.551 13.3588L45.4175 9.26252C46.4669 7.00379 49.1306 6.00769 51.397 7.04036Z" fill="url(#paint0_linear_728_232)"/>
<path d="M51.3968 7.04026C51.0443 6.87963 50.7023 6.78465 50.336 6.69881C51.909 7.96293 52.5009 10.1789 51.6288 12.0927L49.7624 16.189L51.7601 17.0992L53.6266 13.003C54.6761 10.7443 53.6632 8.07293 51.3968 7.04026Z" fill="url(#paint1_radial_728_232)"/>
<path d="M55.5887 68.0068C56.9195 65.3086 56.003 62.3366 54.4735 57.0173C52.9439 51.698 52.7152 51.31 57.6668 37.7733C62.0093 25.8849 58.6451 19.8311 53.4079 15.1741C52.0943 14.0079 50.5989 13.063 49.0041 12.3363C47.4092 11.6096 45.7149 11.1012 43.973 10.8751C36.9978 9.98777 30.2389 11.429 24.1169 22.5065C17.1507 35.1254 16.6987 35.183 11.6902 37.5434C6.6816 39.9039 3.81925 41.1135 2.65634 43.8882L55.5887 68.0068Z" fill="url(#paint2_radial_728_232)"/>
<path d="M12.599 37.1063C12.3149 37.2404 12.0064 37.3836 11.6902 37.5437C6.67245 39.8797 3.81924 41.1138 2.65632 43.8885L55.5719 67.9994C56.9027 65.3012 55.9862 62.3292 54.4567 57.0099C54.3532 56.6587 54.2679 56.3563 54.1904 56.0371C49.5727 51.6219 42.8054 47.1193 34.7976 43.4705C26.7898 39.8217 18.9683 37.677 12.599 37.1063Z" fill="url(#paint3_radial_728_232)"/>
<path d="M25.2437 64.438C39.856 71.0961 52.4687 74.8099 53.415 72.733C54.3613 70.6561 43.2829 63.5751 28.6707 56.917C14.0584 50.259 1.44575 46.5452 0.499424 48.6221C-0.446898 50.6989 10.6315 57.78 25.2437 64.438Z" fill="url(#paint4_linear_728_232)"/>
<path d="M30.8276 52.1834C16.2222 45.5284 3.59728 41.8235 2.6564 43.8884L0.499268 48.6226C1.4478 46.5409 14.065 50.2626 28.6705 56.9176C43.2928 63.5802 54.3633 70.6519 53.4148 72.7336L55.572 67.9994C56.5296 65.9421 45.4499 58.846 30.8276 52.1834Z" fill="url(#paint5_linear_728_232)"/>
<path d="M55.5885 68.0069C56.9193 65.3087 56.0029 62.3367 54.4733 57.0174C52.9437 51.6982 52.715 51.3101 57.6667 37.7734C62.0091 25.885 58.645 19.8312 53.4077 15.1742C52.0942 14.0081 50.5988 13.0631 49.0039 12.3364C58.1375 18.8093 53.0059 28.7365 49.1965 37.0969C45.3871 45.4573 46.0039 48.8199 49.8041 53.9168C52.2074 57.1406 50.6899 61.9838 49.2427 65.1154L55.5885 68.0069Z" fill="url(#paint6_radial_728_232)"/>
<path d="M30.35 58.794C28.7679 62.3629 28.4761 66.4219 30.895 68.0727C33.314 69.7235 36.7603 68.639 39.105 64.7477C39.4098 64.0584 39.6213 63.3662 39.7782 62.6646C37.7441 60.4046 35.4952 57.9749 33.0842 55.451C31.9835 56.1351 31.0178 57.293 30.35 58.794Z" fill="url(#paint7_radial_728_232)"/>
<g filter="url(#filter0_f_728_232)">
<path d="M41.1222 63.1383C38.9491 61.9454 36.5593 60.6943 34.0122 59.4324C33.4802 60.2441 33.0288 61.2346 32.6965 62.3199C37.2932 62.9547 40.7813 66.9566 39.8328 69.0383C39.7945 69.1222 39.7639 69.1894 39.7578 69.2474C40.3053 68.1791 40.7218 66.9092 40.9521 65.5139C41.0719 64.717 41.1337 63.914 41.1222 63.1383Z" fill="url(#paint8_linear_728_232)"/>
</g>
<g clip-path="url(#clip0_728_232)">
<path d="M55.5887 68.0068C56.9195 65.3086 56.003 62.3366 54.4735 57.0173C52.9439 51.698 52.7152 51.31 57.6668 37.7733C62.0093 25.8849 58.6451 19.8311 53.4079 15.1741C52.0943 14.0079 50.5989 13.063 49.0041 12.3363C47.4092 11.6096 45.7149 11.1012 43.973 10.8751C36.9978 9.98777 30.2389 11.429 24.1169 22.5065C17.1507 35.1254 16.6988 35.183 11.6902 37.5434C6.68161 39.9039 3.81925 41.1135 2.65634 43.8882L55.5887 68.0068Z" fill="url(#paint9_radial_728_232)"/>
</g>
<path d="M30.8276 52.1834C16.2222 45.5284 3.59728 41.8235 2.6564 43.8884L0.499268 48.6226C1.4478 46.5409 14.065 50.2626 28.6705 56.9176C43.2928 63.5802 54.3633 70.6519 53.4148 72.7336L55.572 67.9994C56.5296 65.9421 45.4499 58.846 30.8276 52.1834Z" fill="url(#paint10_linear_728_232)"/>
<defs>
<filter id="filter0_f_728_232" x="29.6965" y="56.4324" width="14.427" height="15.8149" filterUnits="userSpaceOnUse" color-interpolation-filters="sRGB">
<feFlood flood-opacity="0" result="BackgroundImageFix"/>
<feBlend mode="normal" in="SourceGraphic" in2="BackgroundImageFix" result="shape"/>
<feGaussianBlur stdDeviation="1.5" result="effect1_foregroundBlur_728_232"/>
</filter>
<linearGradient id="paint0_linear_728_232" x1="51.6889" y1="22.9478" x2="45.7128" y2="0.215987" gradientUnits="userSpaceOnUse">
<stop stop-color="#A3541E"/>
<stop offset="0.5525" stop-color="#FCCE38"/>
<stop offset="0.9996" stop-color="#FF9D00"/>
</linearGradient>
<radialGradient id="paint1_radial_728_232" cx="0" cy="0" r="1" gradientUnits="userSpaceOnUse" gradientTransform="translate(49.1399 10.3735) rotate(29.5296) scale(6.99604)">
<stop offset="0.4543" stop-color="#C86F34" stop-opacity="0"/>
<stop offset="0.6679" stop-color="#C66D33" stop-opacity="0.4456"/>
<stop offset="0.7838" stop-color="#BE672E" stop-opacity="0.6874"/>
<stop offset="0.876" stop-color="#B05E26" stop-opacity="0.8797"/>
<stop offset="0.9336" stop-color="#A3541E"/>
</radialGradient>
<radialGradient id="paint2_radial_728_232" cx="0" cy="0" r="1" gradientUnits="userSpaceOnUse" gradientTransform="translate(38.3326 19.9079) rotate(124.087) scale(47.3626 34.6814)">
<stop stop-color="#FCCE38"/>
<stop offset="0.3638" stop-color="#FCCE38"/>
<stop offset="1" stop-color="#C86F34"/>
</radialGradient>
<radialGradient id="paint3_radial_728_232" cx="0" cy="0" r="1" gradientUnits="userSpaceOnUse" gradientTransform="translate(23.9941 52.4093) rotate(25.8282) scale(54.4834 12.6875)">
<stop stop-color="#FBE07A"/>
<stop offset="0.2187" stop-color="#FBDE73" stop-opacity="0.7813"/>
<stop offset="0.5269" stop-color="#FBD961" stop-opacity="0.4731"/>
<stop offset="0.8866" stop-color="#FCD143" stop-opacity="0.1134"/>
<stop offset="1" stop-color="#FCCE38" stop-opacity="0"/>
</radialGradient>
<linearGradient id="paint4_linear_728_232" x1="34.1993" y1="51.568" x2="-2.22327" y2="97.4488" gradientUnits="userSpaceOnUse">
<stop stop-color="#A8640A"/>
<stop offset="0.9996" stop-color="#FF9D00"/>
</linearGradient>
<linearGradient id="paint5_linear_728_232" x1="47.2486" y1="68.5112" x2="0.224533" y2="40.6536" gradientUnits="userSpaceOnUse">
<stop stop-color="#A3541E"/>
<stop offset="0.5525" stop-color="#FCCE38"/>
<stop offset="0.9996" stop-color="#FF9D00"/>
</linearGradient>
<radialGradient id="paint6_radial_728_232" cx="0" cy="0" r="1" gradientUnits="userSpaceOnUse" gradientTransform="translate(68.164 42.604) rotate(-106.323) scale(26.3179)">
<stop stop-color="#A3541E"/>
<stop offset="0.1203" stop-color="#B05E26" stop-opacity="0.8797"/>
<stop offset="0.3126" stop-color="#BE672E" stop-opacity="0.6874"/>
<stop offset="0.5544" stop-color="#C66D33" stop-opacity="0.4456"/>
<stop offset="0.76875" stop-color="#C86F34" stop-opacity="0"/>
</radialGradient>
<radialGradient id="paint7_radial_728_232" cx="0" cy="0" r="1" gradientUnits="userSpaceOnUse" gradientTransform="translate(39.2262 63.4577) rotate(45) scale(23.9354 16.8746)">
<stop stop-color="#A3541E"/>
<stop offset="0.5525" stop-color="#FCCE38"/>
<stop offset="0.9996" stop-color="#FF9D00"/>
</radialGradient>
<linearGradient id="paint8_linear_728_232" x1="45.3403" y1="62.4277" x2="22.2504" y2="67.696" gradientUnits="userSpaceOnUse">
<stop stop-color="#82561E"/>
<stop offset="0.9996" stop-color="#FF9D00"/>
</linearGradient>
<radialGradient id="paint9_radial_728_232" cx="0" cy="0" r="1" gradientUnits="userSpaceOnUse" gradientTransform="translate(35.1771 22.8291) rotate(124.087) scale(18.893 7.91935)">
<stop stop-color="#FBE07A" stop-opacity="0.75"/>
<stop offset="0.0803394" stop-color="#FBE387" stop-opacity="0.6897"/>
<stop offset="0.5173" stop-color="#FDF2C7" stop-opacity="0.362"/>
<stop offset="0.8357" stop-color="#FFFBF0" stop-opacity="0.1233"/>
<stop offset="1" stop-color="white" stop-opacity="0"/>
</radialGradient>
<linearGradient id="paint10_linear_728_232" x1="47.2486" y1="68.5112" x2="0.224533" y2="40.6536" gradientUnits="userSpaceOnUse">
<stop stop-color="#BA662C"/>
<stop offset="0.5525" stop-color="#FCCE38"/>
<stop offset="0.9996" stop-color="#E99713"/>
</linearGradient>
<clipPath id="clip0_728_232">
<rect width="58.1741" height="47.9293" fill="white" transform="translate(22.5269 0.271973) rotate(24.4964)"/>
</clipPath>
</defs>
</svg>
